<svg viewBox="0 0 22.6 27.9" xmlns="http://www.w3.org/2000/svg"><path d="m19.3 27.9h-16a3.33 3.33 0 0 1 -3.3-3.3v-21.3a3.33 3.33 0 0 1 3.3-3.3h16a3.33 3.33 0 0 1 3.3 3.3v21.3a3.33 3.33 0 0 1 -3.3 3.3zm-16-26.6a2 2 0 0 0 -2 2v21.3a2 2 0 0 0 2 2h16a2 2 0 0 0 2-2v-21.3a2 2 0 0 0 -2-2z"/><path d="m19 9.8h-15.4v-5.5a1.22 1.22 0 0 1 1.2-1.2h13a1.22 1.22 0 0 1 1.2 1.2zm-14.3-1.1h13.2v-4.4a.1.1 0 0 0 -.1-.1h-13a.1.1 0 0 0 -.1.1z"/><path d="m8 15.7h-4.4v-4.4h4.4zm-3.5-.9h2.6v-2.6h-2.6z"/><path d="m13.4 15.7h-4.4v-4.4h4.4zm-3.4-.9h2.6v-2.6h-2.6z"/><path d="m18.9 15.7h-4.4v-4.4h4.4zm-3.4-.9h2.6v-2.6h-2.6z"/><path d="m8 21.7h-4.4v-4.4h4.4zm-3.5-.9h2.6v-2.6h-2.6z"/><path d="m13.4 21.7h-4.4v-4.4h4.4zm-3.4-.9h2.6v-2.6h-2.6z"/><path d="m18.9 21.7h-4.4v-4.4h4.4zm-3.4-.9h2.6v-2.6h-2.6z"/></svg>