<svg
  enable-background="new 0 0 153.3 153.3"
  viewBox="0 0 153.3 153.3"
  xmlns="http://www.w3.org/2000/svg"
>
  <path
    d="m76.8 92.8c-11-.6-22.3-5.1-29.1-11.4-7.3-6.7-11.9-18-11.9-29.3 0-11.2 4.4-21.5 12.4-29 11.8-10.8 26.5-21.6 26.6-21.7l1.9-1.4.9.8.9.5c.1.1 14.8 10.9 26.5 21.8 8 7.5 12.5 17.8 12.4 29 0 11.3-4.6 22.6-11.9 29.3-6.7 6.3-18 10.8-28.7 11.4zm-.3-85.6c-4.2 3.1-15.2 11.6-24.3 20.1-8.8 8.2-10.7 18-10.6 24.8 0 9.7 4 19.5 10.1 25.2 4.8 4.5 14.5 9.2 25.3 9.9 10.4-.6 20.1-5.4 24.9-9.9 6.1-5.6 10.1-15.5 10.1-25.2 0-6.8-1.8-16.6-10.6-24.8-9-8.4-19.9-16.8-24.2-20l-.2.2z"
  />
  <path
    d="m76.6 153.3-.9-.8-.9-.5c-.1-.1-14.8-10.9-26.5-21.8-8-7.5-12.5-17.8-12.4-29 0-11.3 4.6-22.6 11.9-29.3 6.8-6.3 18.1-10.7 28.8-11.4 11 .6 22.3 5.1 29.1 11.4 7.3 6.7 11.9 18 11.9 29.3 0 11.2-4.4 21.5-12.4 29-11.7 10.9-26.4 21.7-26.5 21.8l-1.6 1.2zm-.1-7.5.4.3c4.2-3.1 15.2-11.6 24.3-20.1 8.8-8.2 10.7-18 10.6-24.8 0-9.7-4-19.5-10.1-25.2-4.8-4.5-14.5-9.2-25.3-9.9-10.4.6-20.1 5.4-24.9 9.9-6.1 5.6-10.1 15.5-10.1 25.2 0 6.8 1.8 16.6 10.6 24.8 9 8.4 19.9 16.8 24.2 20z"
  />
  <path
    d="m101.3 117.5h-.1c-11.3 0-22.6-4.6-29.3-11.9-6.3-6.8-10.7-18.1-11.4-28.8.6-11 5.1-22.3 11.4-29.1 6.7-7.3 18-11.9 29.3-11.9h.1c11.1 0 21.4 4.4 28.9 12.4 10.9 11.7 21.7 26.4 21.8 26.5l1.4 1.9-.8.9-.6 1c-.1.1-10.9 14.8-21.8 26.5-7.5 8.1-17.8 12.5-28.9 12.5zm0-76c-.1 0-.1 0 0 0-9.8 0-19.6 4-25.3 10.1-4.5 4.8-9.2 14.5-9.9 25.3.6 10.4 5.4 20.1 9.9 24.9 5.6 6.1 15.5 10.1 25.2 10.1h.1c6.8 0 16.6-1.9 24.7-10.6 8.4-9 16.7-19.9 20-24.1l-.2-.2.3-.4c-3.1-4.2-11.6-15.2-20.1-24.3-8.2-9-17.9-10.8-24.7-10.8z"
  />
  <path
    d="m52.1 117.5c-11.1 0-21.4-4.4-28.9-12.4-10.9-11.8-21.7-26.5-21.8-26.6l-1.4-1.9 1-1 .4-.8c.1-.2 10.9-14.8 21.8-26.5 7.5-8 17.7-12.4 28.9-12.4h.1c11.3 0 22.6 4.6 29.3 11.9 6.3 6.8 10.7 18.1 11.4 28.8-.6 11-5.1 22.3-11.4 29.1-6.7 7.3-18 11.9-29.3 11.9-.1-.1-.1-.1-.1-.1zm-44.9-40.6c3.1 4.1 11.6 15.1 20.1 24.3 8.2 8.8 18 10.6 24.7 10.6h.1c9.7 0 19.5-4 25.2-10.1 4.5-4.8 9.2-14.5 9.9-25.3-.6-10.4-5.4-20.1-9.9-24.9-5.6-6.1-15.5-10.1-25.2-10.1h-.1c-6.8 0-16.6 1.9-24.7 10.6-8.4 9.1-16.8 19.9-20 24.2l.2.2z"
  /></svg>
