<svg id="Layer_1" data-name="Layer 1" xmlns="http://www.w3.org/2000/svg" viewBox="0 0 36 29.43"><title>social-icon-twitter</title><path d="M36,3.43a15.51,15.51,0,0,1-4.2,1.2A7.28,7.28,0,0,0,35,.53a12.77,12.77,0,0,1-4.7,1.8,7.35,7.35,0,0,0-12.7,5.1,9.85,9.85,0,0,0,.2,1.7A20.94,20.94,0,0,1,2.6,1.43a7.36,7.36,0,0,0,2.3,9.9,8.2,8.2,0,0,1-3.4-.9v.1a7.38,7.38,0,0,0,5.9,7.2,6.45,6.45,0,0,1-2,.3,6.15,6.15,0,0,1-1.4-.1A7.29,7.29,0,0,0,10.9,23,15.25,15.25,0,0,1,0,26.13a20.69,20.69,0,0,0,11.3,3.3c13.6,0,21-11.2,21-21v-1a19.76,19.76,0,0,0,3.7-4"/></svg>
