<svg xmlns="http://www.w3.org/2000/svg" viewBox="0 0 48.89 48.89"><g id="Layer_2" data-name="Layer 2"><g id="Layer_1-2" data-name="Layer 1"><path d="M33.82,15.07a4.11,4.11,0,0,0-1.51-1,7.28,7.28,0,0,0-2.46-.46c-1.41-.06-1.83-.07-5.41-.07s-4,0-5.41.07a7.2,7.2,0,0,0-2.45.46,4,4,0,0,0-1.51,1,4.07,4.07,0,0,0-1,1.5A7.4,7.4,0,0,0,13.63,19c-.06,1.41-.08,1.84-.08,5.41s0,4,.08,5.41a7.28,7.28,0,0,0,.46,2.46,4.11,4.11,0,0,0,1,1.51,4.15,4.15,0,0,0,1.51,1,7.33,7.33,0,0,0,2.45.45c1.42.07,1.84.08,5.41.08s4,0,5.41-.08a7.47,7.47,0,0,0,2.46-.45,4.32,4.32,0,0,0,2.49-2.49,7.35,7.35,0,0,0,.45-2.46c.07-1.41.08-1.83.08-5.41s0-4-.08-5.41a7.47,7.47,0,0,0-.45-2.46A4.2,4.2,0,0,0,33.82,15.07ZM24.44,31.42a7,7,0,1,1,7-7A7,7,0,0,1,24.44,31.42ZM31.6,19a1.71,1.71,0,1,1,1.7-1.71A1.71,1.71,0,0,1,31.6,19Z"/><path d="M24.44,20.07a4.37,4.37,0,1,0,4.37,4.37A4.37,4.37,0,0,0,24.44,20.07Z"/><path d="M24.44,0A24.44,24.44,0,0,0,0,24.44H0a24.45,24.45,0,1,0,48.89,0h0A24.45,24.45,0,0,0,24.44,0ZM37.86,30a10,10,0,0,1-.63,3.29,6.64,6.64,0,0,1-1.56,2.41,6.77,6.77,0,0,1-2.41,1.56,9.92,9.92,0,0,1-3.29.63c-1.44.07-1.91.08-5.53.08s-4.09,0-5.53-.08a9.91,9.91,0,0,1-3.28-.63,6.68,6.68,0,0,1-2.41-1.56,6.8,6.8,0,0,1-1.57-2.41A10.18,10.18,0,0,1,11,30c-.06-1.41-.08-1.89-.08-5.53s0-4.11.08-5.53a10.17,10.17,0,0,1,.63-3.28,7,7,0,0,1,4-4A9.91,9.91,0,0,1,18.91,11c1.44-.06,1.91-.08,5.53-.08s4.1,0,5.53.08a9.92,9.92,0,0,1,3.29.63,6.91,6.91,0,0,1,4,4,9.91,9.91,0,0,1,.63,3.28c.07,1.44.08,1.91.08,5.53S37.93,28.54,37.86,30Z"/></g></g></svg>