<svg width="159" height="67" viewBox="0 0 159 67" fill="none" xmlns="http://www.w3.org/2000/svg">
<rect x="8" y="49" width="143" height="18" rx="5" fill="#E2FAFF"/>
<path d="M18.2329 54.5H19.7929C20.1996 55.16 20.5862 55.7867 20.9529 56.38C21.1062 56.6333 21.2629 56.8933 21.4229 57.16C21.5896 57.42 21.7462 57.67 21.8929 57.91C22.0462 58.15 22.1862 58.3733 22.3129 58.58C22.4396 58.7867 22.5462 58.96 22.6329 59.1H22.6629V54.5H24.0829V61.5H22.5229C22.1296 60.8533 21.7496 60.2367 21.3829 59.65C21.2296 59.4033 21.0696 59.15 20.9029 58.89C20.7429 58.6233 20.5862 58.37 20.4329 58.13C20.2862 57.8833 20.1462 57.6567 20.0129 57.45C19.8862 57.2367 19.7762 57.0533 19.6829 56.9H19.6529V61.5H18.2329V54.5ZM28.578 61.64C28.0914 61.64 27.6714 61.58 27.318 61.46C26.9647 61.3333 26.6747 61.1533 26.448 60.92C26.2214 60.6867 26.0514 60.4033 25.938 60.07C25.8314 59.73 25.778 59.3467 25.778 58.92V54.5H27.278V58.93C27.278 59.3567 27.3847 59.71 27.598 59.99C27.8114 60.2633 28.138 60.4 28.578 60.4C29.018 60.4 29.3447 60.2633 29.558 59.99C29.7714 59.71 29.878 59.3567 29.878 58.93V54.5H31.378V58.92C31.378 59.3467 31.3214 59.73 31.208 60.07C31.1014 60.4033 30.9347 60.6867 30.708 60.92C30.4814 61.1533 30.1914 61.3333 29.838 61.46C29.4847 61.58 29.0647 61.64 28.578 61.64ZM32.5509 54.5H38.1009V55.75H36.0809V61.5H34.5709V55.75H32.5509V54.5ZM44.5487 56.63C44.5487 57.15 44.4287 57.5733 44.1887 57.9C43.9553 58.2267 43.632 58.47 43.2187 58.63L44.8287 61.5H43.1787L41.7287 58.85H40.7987V61.5H39.3087V54.5H41.8687C42.2753 54.5 42.642 54.5433 42.9687 54.63C43.302 54.71 43.5853 54.8367 43.8187 55.01C44.052 55.1833 44.232 55.4033 44.3587 55.67C44.4853 55.9367 44.5487 56.2567 44.5487 56.63ZM43.0087 56.64C43.0087 56.3 42.8987 56.0667 42.6787 55.94C42.4653 55.8067 42.1387 55.74 41.6987 55.74H40.7987V57.63H41.6987C42.1387 57.63 42.4653 57.5567 42.6787 57.41C42.8987 57.2567 43.0087 57 43.0087 56.64ZM46.1712 54.5H47.6712V61.5H46.1712V54.5ZM48.8806 54.5H54.4306V55.75H52.4106V61.5H50.9006V55.75H48.8806V54.5ZM55.6384 54.5H57.1384V61.5H55.6384V54.5ZM58.5878 58C58.5878 57.4333 58.6678 56.9267 58.8278 56.48C58.9945 56.0267 59.2245 55.6433 59.5178 55.33C59.8178 55.0167 60.1778 54.7767 60.5978 54.61C61.0178 54.4433 61.4845 54.36 61.9978 54.36C62.5111 54.36 62.9778 54.4433 63.3978 54.61C63.8178 54.7767 64.1745 55.0167 64.4678 55.33C64.7678 55.6433 64.9978 56.0267 65.1578 56.48C65.3245 56.9267 65.4078 57.4333 65.4078 58C65.4078 58.5667 65.3245 59.0767 65.1578 59.53C64.9978 59.9767 64.7678 60.3567 64.4678 60.67C64.1745 60.9833 63.8178 61.2233 63.3978 61.39C62.9778 61.5567 62.5111 61.64 61.9978 61.64C61.4845 61.64 61.0178 61.5567 60.5978 61.39C60.1778 61.2233 59.8178 60.9833 59.5178 60.67C59.2245 60.3567 58.9945 59.9767 58.8278 59.53C58.6678 59.0767 58.5878 58.5667 58.5878 58ZM60.1378 58C60.1378 58.3533 60.1745 58.68 60.2478 58.98C60.3278 59.2733 60.4445 59.5267 60.5978 59.74C60.7511 59.9467 60.9445 60.11 61.1778 60.23C61.4111 60.3433 61.6845 60.4 61.9978 60.4C62.3111 60.4 62.5845 60.3433 62.8178 60.23C63.0511 60.11 63.2445 59.9467 63.3978 59.74C63.5511 59.5267 63.6645 59.2733 63.7378 58.98C63.8178 58.68 63.8578 58.3533 63.8578 58C63.8578 57.6467 63.8178 57.3233 63.7378 57.03C63.6645 56.73 63.5511 56.4767 63.3978 56.27C63.2445 56.0567 63.0511 55.8933 62.8178 55.78C62.5845 55.66 62.3111 55.6 61.9978 55.6C61.6845 55.6 61.4111 55.66 61.1778 55.78C60.9445 55.8933 60.7511 56.0567 60.5978 56.27C60.4445 56.4767 60.3278 56.73 60.2478 57.03C60.1745 57.3233 60.1378 57.6467 60.1378 58ZM66.8536 54.5H68.4136C68.8203 55.16 69.2069 55.7867 69.5736 56.38C69.7269 56.6333 69.8836 56.8933 70.0436 57.16C70.2103 57.42 70.3669 57.67 70.5136 57.91C70.6669 58.15 70.8069 58.3733 70.9336 58.58C71.0603 58.7867 71.1669 58.96 71.2536 59.1H71.2836V54.5H72.7036V61.5H71.1436C70.7503 60.8533 70.3703 60.2367 70.0036 59.65C69.8503 59.4033 69.6903 59.15 69.5236 58.89C69.3636 58.6233 69.2069 58.37 69.0536 58.13C68.9069 57.8833 68.7669 57.6567 68.6336 57.45C68.5069 57.2367 68.3969 57.0533 68.3036 56.9H68.2736V61.5H66.8536V54.5ZM76.5972 58C76.5972 57.4267 76.6772 56.9167 76.8372 56.47C76.9972 56.0167 77.2239 55.6333 77.5172 55.32C77.8172 55.0067 78.1772 54.77 78.5972 54.61C79.0239 54.4433 79.5005 54.36 80.0272 54.36C80.7739 54.36 81.4005 54.5233 81.9072 54.85C82.4139 55.1767 82.7739 55.6733 82.9872 56.34L81.5272 56.85C81.4072 56.4567 81.2272 56.1533 80.9872 55.94C80.7472 55.72 80.4172 55.61 79.9972 55.61C79.6839 55.61 79.4105 55.67 79.1772 55.79C78.9505 55.91 78.7605 56.0767 78.6072 56.29C78.4539 56.4967 78.3372 56.7467 78.2572 57.04C78.1839 57.3333 78.1472 57.6533 78.1472 58C78.1472 58.3467 78.1839 58.6667 78.2572 58.96C78.3372 59.2467 78.4539 59.4967 78.6072 59.71C78.7605 59.9233 78.9539 60.09 79.1872 60.21C79.4205 60.33 79.6939 60.39 80.0072 60.39C80.3939 60.39 80.7072 60.2933 80.9472 60.1C81.1939 59.9067 81.3805 59.6133 81.5072 59.22L82.9472 59.73C82.7139 60.3233 82.3539 60.79 81.8672 61.13C81.3805 61.47 80.7539 61.64 79.9872 61.64C79.4739 61.64 79.0072 61.56 78.5872 61.4C78.1672 61.2333 77.8105 60.9967 77.5172 60.69C77.2239 60.3767 76.9972 59.9933 76.8372 59.54C76.6772 59.0867 76.5972 58.5733 76.5972 58ZM83.9187 58C83.9187 57.4333 83.9987 56.9267 84.1587 56.48C84.3253 56.0267 84.5553 55.6433 84.8487 55.33C85.1487 55.0167 85.5087 54.7767 85.9287 54.61C86.3487 54.4433 86.8153 54.36 87.3287 54.36C87.842 54.36 88.3087 54.4433 88.7287 54.61C89.1487 54.7767 89.5053 55.0167 89.7987 55.33C90.0987 55.6433 90.3287 56.0267 90.4887 56.48C90.6553 56.9267 90.7387 57.4333 90.7387 58C90.7387 58.5667 90.6553 59.0767 90.4887 59.53C90.3287 59.9767 90.0987 60.3567 89.7987 60.67C89.5053 60.9833 89.1487 61.2233 88.7287 61.39C88.3087 61.5567 87.842 61.64 87.3287 61.64C86.8153 61.64 86.3487 61.5567 85.9287 61.39C85.5087 61.2233 85.1487 60.9833 84.8487 60.67C84.5553 60.3567 84.3253 59.9767 84.1587 59.53C83.9987 59.0767 83.9187 58.5667 83.9187 58ZM85.4687 58C85.4687 58.3533 85.5053 58.68 85.5787 58.98C85.6587 59.2733 85.7753 59.5267 85.9287 59.74C86.082 59.9467 86.2753 60.11 86.5087 60.23C86.742 60.3433 87.0153 60.4 87.3287 60.4C87.642 60.4 87.9153 60.3433 88.1487 60.23C88.382 60.11 88.5753 59.9467 88.7287 59.74C88.882 59.5267 88.9953 59.2733 89.0687 58.98C89.1487 58.68 89.1887 58.3533 89.1887 58C89.1887 57.6467 89.1487 57.3233 89.0687 57.03C88.9953 56.73 88.882 56.4767 88.7287 56.27C88.5753 56.0567 88.382 55.8933 88.1487 55.78C87.9153 55.66 87.642 55.6 87.3287 55.6C87.0153 55.6 86.742 55.66 86.5087 55.78C86.2753 55.8933 86.082 56.0567 85.9287 56.27C85.7753 56.4767 85.6587 56.73 85.5787 57.03C85.5053 57.3233 85.4687 57.6467 85.4687 58ZM95.2644 61.5C95.1978 61.32 95.1178 61.1 95.0244 60.84C94.9378 60.5733 94.8411 60.29 94.7344 59.99C94.6344 59.6833 94.5311 59.3667 94.4244 59.04C94.3178 58.7133 94.2111 58.3967 94.1044 58.09C94.0044 57.7767 93.9078 57.48 93.8144 57.2C93.7278 56.92 93.6544 56.6767 93.5944 56.47H93.5644V61.5H92.1844V54.5H94.2844C94.5711 55.3533 94.8311 56.1367 95.0644 56.85C95.1644 57.1567 95.2644 57.4633 95.3644 57.77C95.4644 58.07 95.5578 58.35 95.6444 58.61C95.7311 58.87 95.8044 59.0967 95.8644 59.29C95.9311 59.4833 95.9778 59.6233 96.0044 59.71C96.0311 59.6233 96.0744 59.4833 96.1344 59.29C96.1944 59.0967 96.2644 58.87 96.3444 58.61C96.4244 58.35 96.5111 58.07 96.6044 57.77C96.7044 57.4633 96.8044 57.1567 96.9044 56.85C97.1311 56.1367 97.3844 55.3533 97.6644 54.5H99.7544V61.5H98.3744V56.47H98.3444C98.2778 56.6767 98.1944 56.9267 98.0944 57.22C98.0011 57.5067 97.9011 57.8133 97.7944 58.14C97.6878 58.4667 97.5778 58.8 97.4644 59.14C97.3511 59.4733 97.2444 59.7933 97.1444 60.1C97.0444 60.4 96.9511 60.6733 96.8644 60.92C96.7778 61.1667 96.7111 61.36 96.6644 61.5H95.2644ZM104.578 61.5C104.511 61.32 104.431 61.1 104.338 60.84C104.251 60.5733 104.155 60.29 104.048 59.99C103.948 59.6833 103.845 59.3667 103.738 59.04C103.631 58.7133 103.525 58.3967 103.418 58.09C103.318 57.7767 103.221 57.48 103.128 57.2C103.041 56.92 102.968 56.6767 102.908 56.47H102.878V61.5H101.498V54.5H103.598C103.885 55.3533 104.145 56.1367 104.378 56.85C104.478 57.1567 104.578 57.4633 104.678 57.77C104.778 58.07 104.871 58.35 104.958 58.61C105.045 58.87 105.118 59.0967 105.178 59.29C105.245 59.4833 105.291 59.6233 105.318 59.71C105.345 59.6233 105.388 59.4833 105.448 59.29C105.508 59.0967 105.578 58.87 105.658 58.61C105.738 58.35 105.825 58.07 105.918 57.77C106.018 57.4633 106.118 57.1567 106.218 56.85C106.445 56.1367 106.698 55.3533 106.978 54.5H109.068V61.5H107.688V56.47H107.658C107.591 56.6767 107.508 56.9267 107.408 57.22C107.315 57.5067 107.215 57.8133 107.108 58.14C107.001 58.4667 106.891 58.8 106.778 59.14C106.665 59.4733 106.558 59.7933 106.458 60.1C106.358 60.4 106.265 60.6733 106.178 60.92C106.091 61.1667 106.025 61.36 105.978 61.5H104.578ZM113.572 61.64C113.085 61.64 112.665 61.58 112.312 61.46C111.958 61.3333 111.668 61.1533 111.442 60.92C111.215 60.6867 111.045 60.4033 110.932 60.07C110.825 59.73 110.772 59.3467 110.772 58.92V54.5H112.272V58.93C112.272 59.3567 112.378 59.71 112.592 59.99C112.805 60.2633 113.132 60.4 113.572 60.4C114.012 60.4 114.338 60.2633 114.552 59.99C114.765 59.71 114.872 59.3567 114.872 58.93V54.5H116.372V58.92C116.372 59.3467 116.315 59.73 116.202 60.07C116.095 60.4033 115.928 60.6867 115.702 60.92C115.475 61.1533 115.185 61.3333 114.832 61.46C114.478 61.58 114.058 61.64 113.572 61.64ZM118.075 54.5H119.635C120.041 55.16 120.428 55.7867 120.795 56.38C120.948 56.6333 121.105 56.8933 121.265 57.16C121.431 57.42 121.588 57.67 121.735 57.91C121.888 58.15 122.028 58.3733 122.155 58.58C122.281 58.7867 122.388 58.96 122.475 59.1H122.505V54.5H123.925V61.5H122.365C121.971 60.8533 121.591 60.2367 121.225 59.65C121.071 59.4033 120.911 59.15 120.745 58.89C120.585 58.6233 120.428 58.37 120.275 58.13C120.128 57.8833 119.988 57.6567 119.855 57.45C119.728 57.2367 119.618 57.0533 119.525 56.9H119.495V61.5H118.075V54.5ZM125.66 54.5H127.16V61.5H125.66V54.5ZM128.369 54.5H133.919V55.75H131.899V61.5H130.389V55.75H128.369V54.5ZM137.245 58.57L134.595 54.5H136.315L138.025 57.18L139.725 54.5H141.395L138.745 58.57V61.5H137.245V58.57Z" fill="#004466" fill-opacity="0.7"/>
<g clip-path="url(#clip0_31_777)">
<path d="M67.8501 36.8138H70.5849V16.4142C70.5849 11.3012 74.7604 10.6572 76.4333 10.6572C77.2494 10.7045 78.0614 10.8061 78.864 10.9612V12.8572C78.134 12.7076 77.395 12.606 76.6518 12.5532C75.5457 12.5532 72.7639 12.9401 72.7639 16.3811V20.9994H78.2943V22.8014H72.7639V36.8111H75.9826V38.6131H67.8501V36.8138Z" fill="#004466"/>
<path d="M96.6609 36.8138H99.1718V24.9461C99.183 24.8643 99.178 24.7812 99.1569 24.7014C99.1359 24.6217 99.0992 24.5469 99.0491 24.4814C98.999 24.4158 98.9363 24.3609 98.8648 24.3197C98.7933 24.2785 98.7144 24.2518 98.6325 24.2413H98.6187C98.5637 24.2329 98.5078 24.2329 98.4528 24.2413H96.2655V22.4393H99.3211C100.673 22.4393 101.284 22.992 101.284 24.2717V25.3772C101.284 25.7852 101.263 26.193 101.221 26.5988H101.284C102.089 24.1556 103.892 22.29 106.4 22.29C106.699 22.2933 106.997 22.3238 107.29 22.3812V24.537C107.016 24.4979 106.738 24.4766 106.461 24.4734C102.825 24.4734 101.345 28.5583 101.345 31.7726V36.8221H103.856V38.6241H96.6388L96.6609 36.8138Z" fill="#004466"/>
<path d="M109.132 36.8138H111.867V24.9461C111.877 24.8633 111.871 24.7792 111.849 24.6988C111.827 24.6183 111.789 24.5431 111.738 24.4773C111.686 24.4115 111.622 24.3566 111.55 24.3156C111.477 24.2746 111.397 24.2484 111.314 24.2385C111.26 24.2305 111.205 24.2305 111.151 24.2385H108.963V22.4393H112.052C113.404 22.4393 114.015 23.0197 114.015 24.2413V25.1644C114.015 25.554 113.971 25.9424 113.885 26.3224H113.949C114.779 24.1363 117.392 22.0441 119.966 22.0441C122.895 22.0441 124.438 23.426 124.888 26.1594H124.952C125.853 24.0036 128.201 22.0441 130.936 22.0441C134.829 22.0441 136.278 24.327 136.278 28.3151V36.8055H138.388V38.6075H134.113V28.8707C134.113 26.234 133.56 24.0589 130.629 24.0589C127.347 24.0589 125.19 27.533 125.19 30.8772V36.8276H127.924V38.6296H123.002V28.8707C123.002 26.4275 122.679 24.0478 119.593 24.0478C116.275 24.0478 114.062 27.5523 114.062 30.9297V36.8138H116.797V38.6158H109.132V36.8138Z" fill="#004466"/>
<path d="M140.105 33.5968H142.099V34.7548C142.099 36.3938 144.449 37.1013 146.316 37.1013C148.376 37.1013 150.113 36.2003 150.113 34.5614C150.113 32.6958 148.052 32.0518 145.735 31.184C143.291 30.283 140.716 29.1913 140.716 26.3584C140.716 23.3984 143.612 22.0496 146.316 22.0496C148.503 22.0496 151.689 22.981 151.689 25.2004V27.0797H149.695V25.8803C149.695 24.6891 148.086 23.9456 146.377 23.9456C144.577 23.9456 142.962 24.7222 142.962 26.2976C142.962 28.0664 144.925 28.8071 147.049 29.5782C149.56 30.4792 152.325 31.5405 152.325 34.4342C152.325 37.2312 149.814 39 146.211 39C143.219 39 140.097 37.6485 140.097 35.1722L140.105 33.5968Z" fill="#004466"/>
<path d="M0.157617 35.6061H2.4887V19.2167H0V16.2208H6.49826V28.6137H8.61089L11.2489 25.4436H9.40174V22.4476H17.1444V25.4436H15.0373L11.5144 29.6556V29.7192C11.5448 29.7192 12.1144 29.9956 12.7449 31.0762L15.0179 35.0533C15.2944 35.5259 15.5709 35.6199 16.3424 35.6199H17.2577V38.6159H14.2602C12.9025 38.6159 12.3661 38.3947 11.7356 37.234L8.83211 32.1568C8.51687 31.5903 8.00254 31.5571 7.4495 31.5571H6.49826V35.6061H8.23482V38.602H0.157617V35.6061Z" fill="#004466"/>
<path d="M25.6501 36.0013C27.8263 36.0013 29.3721 33.6686 29.3721 31.6483V31.1121H28.7084C27.1323 31.1121 23.3135 31.3636 23.3135 33.793C23.3163 34.9925 24.168 36.0013 25.6501 36.0013ZM28.3324 28.6855H29.3417V28.1521C29.3417 26.1013 28.0476 25.3883 26.3774 25.3883C23.9799 25.3744 21.8452 26.9194 21.8452 26.9194L20.363 24.1556C22.2248 22.8486 24.4479 22.154 26.723 22.1684C31.0451 22.1684 33.3595 24.4071 33.3595 28.5058V34.9372C33.3374 35.0984 33.38 35.2617 33.4779 35.3917C33.5758 35.5216 33.7211 35.6076 33.8822 35.6309C33.9372 35.6392 33.9931 35.6392 34.0481 35.6309H35.4998V38.6269H31.7087C30.2265 38.6269 29.6569 37.8392 29.6569 36.9244V36.7199C29.6508 36.4405 29.6824 36.1616 29.7509 35.8907H29.6873C29.2186 36.833 28.4938 37.6242 27.5958 38.1737C26.6979 38.7231 25.6632 39.0085 24.6104 38.9972C21.8645 38.9972 19.2791 37.3887 19.2791 34.1108C19.2791 29.1885 25.7469 28.6855 28.3324 28.6855Z" fill="#004466"/>
<path d="M38.572 25.4381H36.111V22.4421H38.713V18.0587H42.5843V22.4421H46.2455V25.4381H42.5843V32.2177C42.5843 34.9621 44.6665 35.338 45.803 35.338C46.0449 35.3403 46.2867 35.3301 46.5275 35.3076V38.5882C46.1207 38.654 45.7091 38.6855 45.297 38.6822C43.0268 38.6822 38.5775 38.0189 38.5775 32.6267L38.572 25.4381Z" fill="#004466"/>
<path d="M59.6623 28.7131C59.5987 26.5021 58.2438 25.181 56.5376 25.181C54.4858 25.181 53.0369 26.5988 52.6663 28.7131H59.6623ZM56.6206 22.08C61.2579 22.08 63.7825 25.4546 63.7825 29.7109C63.7825 30.1835 63.6885 31.0679 63.6885 31.0679H52.5391C52.7908 34.0307 54.9366 35.5453 57.3672 35.5453C59.9859 35.5453 62.0377 33.8428 62.0377 33.8428L63.6 36.6812C61.757 38.1541 59.4613 38.9449 57.1017 38.9199C51.7704 38.9199 48.4577 35.0726 48.4577 30.5013C48.4494 25.5486 51.7953 22.08 56.6206 22.08Z" fill="#004466"/>
<path d="M89.9691 31.1204C89.9691 33.9505 88.1358 37.2008 84.8839 37.2008C82.633 37.2008 81.408 35.6254 81.408 33.9533C81.408 30.2222 87.7154 30.3603 89.0345 30.3603H89.9663L89.9691 31.1204ZM92.8643 36.8138C92.7814 36.8243 92.6974 36.8182 92.6169 36.796C92.5364 36.7739 92.4611 36.736 92.3953 36.6846C92.3295 36.6332 92.2745 36.5694 92.2335 36.4967C92.1925 36.424 92.1663 36.3439 92.1564 36.2611C92.148 36.2061 92.148 36.1502 92.1564 36.0952V28.13C92.1564 25.3219 91.1471 23.4619 89.181 22.6024C88.6602 23.1529 88.0982 23.6629 87.4998 24.128C88.9847 24.537 89.9691 25.695 89.9691 28.0332V28.7076H88.9073C86.1725 28.7076 79.1571 28.9315 79.1571 34.1744C79.1571 37.491 81.9223 39 84.5631 39C88.7109 39 90.0935 35.302 90.0935 35.302H90.1461C90.0766 35.7166 90.0442 36.1365 90.0493 36.5568V36.8332C90.0493 37.9912 90.6023 38.602 91.9849 38.602H94.623V36.8L92.8643 36.8138Z" fill="#004466"/>
<path d="M156.539 24.1197H156.113V24.8687H156.567C156.885 24.8687 157.015 24.7167 157.015 24.4901C157.015 24.2635 156.854 24.1197 156.539 24.1197ZM157.048 25.2253L157.667 26.2893H157.064L156.511 25.2805H156.113V26.2893H155.618V23.6941H156.6C157.067 23.6941 157.557 23.8516 157.557 24.4763C157.564 24.641 157.519 24.8039 157.427 24.9411C157.336 25.0783 157.203 25.1827 157.048 25.2391V25.2253ZM158.477 24.9986C158.469 24.4721 158.253 23.9701 157.877 23.602C157.5 23.2339 156.993 23.0296 156.466 23.0336C155.939 23.0376 155.435 23.2496 155.064 23.6234C154.693 23.9972 154.485 24.5024 154.485 25.029C154.485 25.5556 154.693 26.0609 155.064 26.4346C155.435 26.8084 155.939 27.0204 156.466 27.0244C156.993 27.0284 157.5 26.8241 157.877 26.4561C158.253 26.088 158.469 25.586 158.477 25.0594V24.9986ZM153.989 24.9986C153.986 24.5034 154.13 24.0183 154.402 23.6047C154.675 23.1911 155.064 22.8676 155.521 22.6751C155.977 22.4825 156.481 22.4296 156.967 22.523C157.454 22.6164 157.902 22.8519 158.254 23.1998C158.607 23.5477 158.849 23.9922 158.948 24.4773C159.048 24.9624 159.002 25.4662 158.816 25.925C158.629 26.3838 158.31 26.777 157.9 27.0548C157.49 27.3327 157.007 27.4828 156.511 27.486C155.862 27.5009 155.233 27.2575 154.762 26.8092C154.292 26.361 154.019 25.7446 154.003 25.0954L153.989 24.9986Z" fill="#004466"/>
<path d="M83.5095 22.5084C85.0055 21.7953 86.402 21.0933 86.8278 19.377C87.3532 17.224 86.6868 15.7841 84.5354 14.4519L83.4293 13.7555L84.3972 12.8683C84.4884 12.7826 86.7089 10.6572 85.7798 7.50097C84.8507 4.34471 81.5988 3.73667 80.0143 3.86381C78.7301 3.98072 77.4912 4.39724 76.3974 5.07988L75.5678 5.65199L74.9982 4.82285C74.8848 4.65978 72.1417 0.776641 68.1571 2.36859C64.2415 3.94119 65.284 7.67785 65.3227 7.83539L65.6767 9.0487L64.4296 9.11503C64.3521 9.11503 62.281 9.29744 61.0007 11.7987C60.5815 12.712 60.3877 13.7126 60.4359 14.7164C60.484 15.7201 60.7725 16.6976 61.2772 17.5667C62.4939 19.6175 64.8554 20.723 68.1239 20.8031L68.0631 22.8041C63.0221 22.6798 60.6495 20.4466 59.5462 18.5893C58.8679 17.4298 58.4832 16.1224 58.4254 14.7805C58.3675 13.4386 58.6384 12.1029 59.2144 10.8894C60.3841 8.60649 62.0985 7.70549 63.2129 7.34896C62.9889 5.2236 63.6553 2.02864 67.4298 0.522371C71.2818 -1.01707 74.4977 1.15252 76.0905 2.96834C77.2618 2.36281 78.5384 1.98752 79.8512 1.86281C82.8182 1.62236 86.5153 3.10376 87.6546 6.92333C87.9859 8.01607 88.056 9.1713 87.8591 10.296C87.6622 11.4208 87.2038 12.4836 86.5209 13.3989C87.8371 14.416 89.5875 16.3921 88.7469 19.8441C88.1136 22.4642 86.0287 23.437 84.3806 24.3049C83.8967 24.5564 82.4062 25.134 82.4449 26.1428V27.0936H80.5231V25.4629C80.5231 24.1777 81.632 23.4039 83.5095 22.5084Z" fill="#004466"/>
</g>
<defs>
<clipPath id="clip0_31_777">
<rect width="159" height="39" fill="white"/>
</clipPath>
</defs>
</svg>
