<svg class="fill-current" viewBox="0 0 575 141.11" xmlns="http://www.w3.org/2000/svg"><g transform="translate(0 -.02)"><path d="m245.37 133.22h9.89v-73.81c0-18.5 15.1-20.83 21.15-20.83a66.6 66.6 0 0 1 8.79 1.1v6.86a61.55 61.55 0 0 0 -8-1.1c-4 0-14.06 1.4-14.06 13.85v16.71h20v6.52h-20v50.69h11.64v6.52h-29.41z"/><path d="m349.56 133.22h9.08v-42.94a2.26 2.26 0 0 0 -1.95-2.55h-.05a2 2 0 0 0 -.6 0h-7.91v-6.52h11.05c4.89 0 7.1 2 7.1 6.63v4a43.47 43.47 0 0 1 -.23 4.42h.23c2.91-8.84 9.43-15.59 18.5-15.59a17.77 17.77 0 0 1 3.22.33v7.8a23.17 23.17 0 0 0 -3-.23c-13.15 0-18.5 14.78-18.5 26.41v18.27h9.08v6.52h-26.1z"/><path d="m394.66 133.22h9.89v-42.94a2.29 2.29 0 0 0 -2-2.56 2 2 0 0 0 -.59 0h-7.91v-6.51h11.17c4.89 0 7.1 2.1 7.1 6.52v3.34a19.09 19.09 0 0 1 -.47 4.19h.23c3-7.91 12.45-15.48 21.76-15.48 10.59 0 16.17 5 17.8 14.89h.23c3.26-7.8 11.75-14.89 21.64-14.89 14.08 0 19.32 8.26 19.32 22.69v30.72h7.63v6.52h-15.46v-35.23c0-9.54-2-17.41-12.6-17.41-11.87 0-19.67 12.57-19.67 24.67v21.53h9.89v6.52h-17.8v-35.31c0-8.84-1.17-17.45-12.33-17.45-12 0-20 12.68-20 24.9v21.29h9.89v6.52h-27.72z"/><path d="m506.67 121.58h7.21v4.19c0 5.93 8.5 8.49 15.25 8.49 7.45 0 13.73-3.26 13.73-9.19 0-6.75-7.45-9.08-15.83-12.22-8.84-3.26-18.15-7.21-18.15-17.46 0-10.71 10.47-15.59 20.25-15.59 7.91 0 19.43 3.37 19.43 11.4v6.8h-7.21v-4.34c0-4.31-5.82-7-12-7-6.51 0-12.35 2.81-12.35 8.51 0 6.4 7.1 9.08 14.78 11.87 9.08 3.26 19.08 7.1 19.08 17.57 0 10.12-9.08 16.52-22.11 16.52-10.82 0-22.11-4.89-22.11-13.85z"/><path d="m.57 128.85h8.43v-59.3h-9v-10.84h23.5v44.84h7.64l9.54-11.47h-6.68v-10.84h28v10.84h-7.62l-12.74 15.24v.23c.11 0 2.17 1 4.45 4.91l8.22 14.39c1 1.71 2 2.05 4.79 2.05h3.31v10.84h-10.84c-4.91 0-6.85-.8-9.13-5l-10.5-18.37c-1.14-2.05-3-2.17-5-2.17h-3.44v14.65h6.28v10.84h-29.21z"/><path d="m92.76 130.28c7.87 0 13.46-8.44 13.46-15.75v-1.94h-2.4c-5.7 0-19.51.91-19.51 9.7.01 4.34 3.09 7.99 8.45 7.99zm9.7-26.47h3.65v-1.93c0-7.42-4.68-10-10.72-10-8.67-.05-16.39 5.54-16.39 5.54l-5.36-10a39.58 39.58 0 0 1 23-7.19c15.63 0 24 8.1 24 22.93v23.27a2.23 2.23 0 0 0 1.89 2.51 2 2 0 0 0 .6 0h5.25v10.84h-13.71c-5.36 0-7.42-2.85-7.42-6.16v-.74a11.24 11.24 0 0 1 .34-3h-.23a20.26 20.26 0 0 1 -18.36 11.24c-9.93 0-19.28-5.82-19.28-17.68 0-17.81 23.39-19.63 32.74-19.63z"/><path d="m139.49 92.06h-8.9v-10.84h9.41v-15.86h14v15.86h13.24v10.84h-13.24v24.53c0 9.93 7.53 11.29 11.64 11.29a25.51 25.51 0 0 0 2.62-.11v11.87a26.52 26.52 0 0 1 -4.45.34c-8.21 0-24.3-2.4-24.3-21.91z"/><path d="m215.76 103.91c-.23-8-5.13-12.78-11.3-12.78-7.42 0-12.66 5.13-14 12.78zm-11-24c16.77 0 25.9 12.21 25.9 27.61 0 1.71-.34 4.91-.34 4.91h-40.32c.91 10.72 8.67 16.2 17.46 16.2 9.47 0 16.89-6.16 16.89-6.16l5.65 10.27a37 37 0 0 1 -23.5 8.1c-19.28 0-31.26-13.92-31.26-30.46-.03-17.92 12.07-30.47 29.52-30.47z"/><path d="m325.36 112.62c0 10.24-6.63 22-18.39 22-8.14 0-12.57-5.7-12.57-11.75 0-13.5 22.81-13 27.58-13h3.37zm10.47 20.6a2.29 2.29 0 0 1 -2.56-2 2 2 0 0 1 0-.6v-28.82c0-10.16-3.65-16.89-10.76-20a53.89 53.89 0 0 1 -6.08 5.52c5.37 1.48 8.93 5.67 8.93 14.13v2.44h-3.84c-9.89 0-35.26.81-35.26 19.78 0 12 10 17.46 19.55 17.46 15 0 20-13.38 20-13.38h.19a25.58 25.58 0 0 0 -.35 4.54v1c0 4.19 2 6.4 7 6.4h9.54v-6.52z"/><path d="m566.1 87.29h-1.54v2.71h1.64c1.15 0 1.62-.55 1.62-1.37s-.58-1.34-1.72-1.34zm1.84 4 2.24 3.85h-2.18l-2-3.65h-1.44v3.65h-1.79v-9.39h3.55c1.69 0 3.46.57 3.46 2.83a2.8 2.8 0 0 1 -1.84 2.76zm5.17-.82a7.22 7.22 0 1 0 0 .22zm-16.23 0a9.06 9.06 0 1 1 9.12 9 8.87 8.87 0 0 1 -9.07-8.65z"/><path d="m302 81.46c5.41-2.58 10.46-5.12 12-11.33 1.9-7.79-.51-13-8.29-17.82l-4-2.52 3.5-3.21c.33-.31 8.36-8 5-19.42s-15.12-13.62-20.85-13.16a29.8 29.8 0 0 0 -13.08 4.4l-3 2.07-2.06-3c-.41-.59-10.33-14.64-24.74-8.88-14.16 5.69-10.39 19.21-10.25 19.78l1.28 4.39-4.51.24c-.28 0-7.77.66-12.4 9.71a22.71 22.71 0 0 0 1 20.87c4.4 7.42 12.94 11.42 24.76 11.71l-.22 7.24c-18.23-.45-26.81-8.53-30.8-15.25a29.85 29.85 0 0 1 -1.2-27.86c4.23-8.26 10.43-11.52 14.46-12.81-.81-7.69 1.6-19.25 15.25-24.7 13.93-5.57 25.56 2.28 31.32 8.85a37.28 37.28 0 0 1 13.6-4c10.73-.87 24.1 4.49 28.22 18.31a26.39 26.39 0 0 1 -4.1 23.43c4.76 3.68 11.09 10.83 8.05 23.32-2.29 9.48-9.83 13-15.79 16.14-1.75.91-7.14 3-7 6.65v3.44h-6.95v-5.9c0-4.65 4.01-7.45 10.8-10.69z"/></g></svg>
