<svg viewBox="0 0 78.75 63.35" xmlns="http://www.w3.org/2000/svg"><path d="m0 40.25a57.19 57.19 0 0 1 1.23-11.37 39.39 39.39 0 0 1 4.37-11.73 42.67 42.67 0 0 1 8.23-10.33 29.9 29.9 0 0 1 13.17-6.82l4.2 11.2a17.22 17.22 0 0 0 -11 7 21.09 21.09 0 0 0 -4 12.6v2.1h.7a4.19 4.19 0 0 0 1.05-.18 6 6 0 0 1 1.4-.17 14.42 14.42 0 0 1 10 4q4.25 4.05 4.25 11.45a17 17 0 0 1 -3.85 10.32q-3.86 5.08-11.9 5.08-9.11 0-13.47-6.83a29.47 29.47 0 0 1 -4.38-16.32zm45.15 0a57.19 57.19 0 0 1 1.23-11.37 39.39 39.39 0 0 1 4.37-11.73 42.67 42.67 0 0 1 8.25-10.33 29.84 29.84 0 0 1 13.1-6.82l4.2 11.2a17.2 17.2 0 0 0 -11 7 21 21 0 0 0 -4 12.6v2.1h.7a4.19 4.19 0 0 0 1-.18 6 6 0 0 1 1.4-.17 14.4 14.4 0 0 1 10 4q4.37 4 4.37 11.38a17 17 0 0 1 -3.87 10.34q-3.9 5.08-11.9 5.08-9.11 0-13.47-6.83a29.38 29.38 0 0 1 -4.38-16.27z"/></svg>