<svg viewBox="0 0 78.75 63.35" xmlns="http://www.w3.org/2000/svg"><path d="m78.75 23.1a57.19 57.19 0 0 1 -1.23 11.37 39.59 39.59 0 0 1 -4.37 11.73 42.44 42.44 0 0 1 -8.23 10.32 29.91 29.91 0 0 1 -13.12 6.83l-4.2-11.2a17.22 17.22 0 0 0 11-7 21.06 21.06 0 0 0 4-12.6v-2.1h-.6a4.57 4.57 0 0 0 -1.05.17 5.54 5.54 0 0 1 -1.4.18 14.38 14.38 0 0 1 -10-4q-4.37-4-4.37-11.37a17 17 0 0 1 3.82-10.35q3.86-5.08 11.9-5.08 9.1 0 13.48 6.83a29.54 29.54 0 0 1 4.37 16.27zm-45.15 0a57.88 57.88 0 0 1 -1.22 11.37 39.89 39.89 0 0 1 -4.38 11.73 42.44 42.44 0 0 1 -8.23 10.32 29.85 29.85 0 0 1 -13.12 6.83l-4.2-11.2a17.24 17.24 0 0 0 11-7 21.06 21.06 0 0 0 4-12.6v-2.1h-.7a4.57 4.57 0 0 0 -1.05.17 5.54 5.54 0 0 1 -1.4.18 14.33 14.33 0 0 1 -10-4q-4.3-4.05-4.3-11.4a17 17 0 0 1 3.85-10.32q3.86-5.08 11.9-5.08 9.11 0 13.47 6.83a29.38 29.38 0 0 1 4.38 16.27z"/></svg>