<svg viewBox="0 0 35.09 47.27" xmlns="http://www.w3.org/2000/svg"><path d="m6.12 11.25c.1.4.3.8.5 1.4.3.9 1.9 4.8 3.1 7.7l.3.7c.5 1.2 1.1 1.5 1.3 1.5h.1l.2-.1 5.4-2.1v-.1a.1.1 0 0 0 .1-.1c.1-.2.3-.7-.1-2l-.3-.7c-1.7-4.4-2.7-7-3-7.7a5.39 5.39 0 0 0 -.7-1.3v-.1c.1-.2 0-.3-.1-.5a8.26 8.26 0 0 0 -1.2-1.5 1.53 1.53 0 0 0 -1.3-.2l-.1-.1a.72.72 0 0 0 -.4-.6.85.85 0 0 0 -.7 0l-2.3.9a.6.6 0 0 0 -.5.4.75.75 0 0 0 0 .8l.1.3a1.5 1.5 0 0 0 -.9 1 5 5 0 0 0 .2 1.9c0 .3.1.5.3.5zm3.3-4.4-1.9.8v-.1l1.9-.8zm-2.1 2c0-.1.1-.1 0 0l.3-.1 2.6-1 .1-.1h.1a4.08 4.08 0 0 1 .7-.2 2.48 2.48 0 0 1 .7.9c-.1.2 0 .3.1.5s.4.8.8 1.7 2.3 5.8 3 7.6l.3.7a2 2 0 0 1 .2.9l-4.6 1.8a3.78 3.78 0 0 1 -.5-.8l-.3-.7c-.8-1.8-2.8-6.6-3.1-7.6a10 10 0 0 1 -.5-1.8c0-.2-.1-.3-.3-.4a5.38 5.38 0 0 1 -.1-1.1c-.1-.1.18-.3.5-.3z"/><path d="m11.45 22.7h-.13c-.27 0-.92-.33-1.44-1.59l-.3-.7c-1.25-3-2.81-6.81-3.11-7.71-.08-.26-.17-.49-.25-.69a5.32 5.32 0 0 1 -.22-.63c-.14 0-.33-.18-.33-.6a5.08 5.08 0 0 1 -.2-1.95 1.52 1.52 0 0 1 .86-1l-.06-.23a.91.91 0 0 1 0-.92.76.76 0 0 1 .6-.48l2.28-.89a1 1 0 0 1 .82 0 .82.82 0 0 1 .48.66 1.66 1.66 0 0 1 1.35.24 8.22 8.22 0 0 1 1.2 1.56l.06.11a.51.51 0 0 1 .07.5 5.71 5.71 0 0 1 .68 1.29c.27.62 1.08 2.71 2.41 6.17l.6 1.54.29.69c.43 1.37.21 1.91.11 2.1a.25.25 0 0 1 -.09.16v.1l-5.5 2.14zm-5.18-11.47a4.87 4.87 0 0 0 .23.67c.08.21.17.44.26.7.31.94 2.07 5.22 3.09 7.69l.3.7c.49 1.17 1 1.41 1.17 1.41h.06l.17-.08 5.32-2.07v-.15h.11a2.69 2.69 0 0 0 -.11-1.89l-.29-.68-.58-1.53c-1.33-3.46-2.14-5.55-2.4-6.16a5.32 5.32 0 0 0 -.68-1.27v-.29c0-.09 0-.12 0-.26l-.06-.1a7.91 7.91 0 0 0 -1.16-1.45 1.39 1.39 0 0 0 -1.17-.17h-.08l-.2-.21v-.04c0-.06-.09-.39-.3-.46a.8.8 0 0 0 -.59 0l-2.44.91a.46.46 0 0 0 -.36.3.61.61 0 0 0 0 .68l.15.45-.13.07a1.37 1.37 0 0 0 -.82.9 5.12 5.12 0 0 0 .24 1.78v-.68l.26 1.07zm5.31 10.5-.07-.07a4.13 4.13 0 0 1 -.53-.84l-.3-.71c-.81-1.82-2.8-6.6-3.11-7.62a9.07 9.07 0 0 1 -.5-1.82c0-.13 0-.19-.22-.29h-.07v-.07a5.1 5.1 0 0 1 -.1-1.09.2.2 0 0 1 0-.17.72.72 0 0 1 .55-.31.16.16 0 0 1 .1-.08h.11v.05h.12l2.56-1 .12-.12h.14a3.57 3.57 0 0 1 .73-.2h.06c.23.11.43.39.76.95l.05.07v.08c0 .09 0 .12.05.26a.47.47 0 0 0 .05.1c.12.24.41.82.8 1.71s2.31 5.83 3 7.61l.29.69a2.12 2.12 0 0 1 .22 1v.1zm-4.21-11.08a9.64 9.64 0 0 0 .49 1.75c.3 1 2.31 5.82 3.09 7.59l.3.7a4.56 4.56 0 0 0 .41.68l4.4-1.72a2 2 0 0 0 -.18-.74l-.3-.7c-.7-1.78-2.59-6.58-3-7.6s-.68-1.46-.79-1.68l-.06-.11a.52.52 0 0 1 -.08-.46 3.05 3.05 0 0 0 -.57-.76c-.12 0-.42.13-.62.19h-.08l-.11.09-2.8 1.12h-.13l-.34.12a5.53 5.53 0 0 0 .08 1 .54.54 0 0 1 .32.5zm0-2.77v-.43l2.2-.93v.48z"/><path d="m17.32 4.75v1.5c0 1 .4 5.8.5 8.1l.1.9a2.6 2.6 0 0 0 .7 1.9h.1v.1l1.3-.1 4.5-.3h.2v-.1h.1c.2-.1.6-.6.5-1.9v-.7c-.1-2-.3-7.2-.4-8.3-.1-.7-.2-1.2-.2-1.5a.75.75 0 0 0 .1-.5 9.42 9.42 0 0 0 -.6-1.8 1.31 1.31 0 0 0 -1.2-.6v-.2a1.34 1.34 0 0 0 -.2-.8.86.86 0 0 0 -.6-.3l-2.5.1a1.07 1.07 0 0 0 -.6.2 1.14 1.14 0 0 0 -.3.7v.3c-.4.1-.9.2-1.1.7a7.19 7.19 0 0 0 -.4 1.9.6.6 0 0 0 0 .7zm1.9-2.1h.3l2.8-.2h.2a1.58 1.58 0 0 1 .7 0c.1.2.2.5.4 1a.6.6 0 0 0 -.1.4c0 .1.2.8.3 1.8s.3 6.2.4 8.2v.7c0 .5 0 .8-.1.9l-5 .3c0 .1-.1-.2-.1-.6v-.8c-.2-2.1-.5-7.1-.5-8.2a14.88 14.88 0 0 1 .1-1.9c0-.2 0-.3-.2-.4a5.31 5.31 0 0 1 .3-1.1c-.1 0 .28-.1.5-.1zm.6-1.2 2.1-.1v.1l-2.1.1z"/><path d="m18.57 17.41v-.11a2.74 2.74 0 0 1 -.74-2l-.1-.89c-.05-1.12-.17-2.77-.28-4.37s-.22-3.23-.22-3.75v-1.5a.72.72 0 0 1 0-.79 7.13 7.13 0 0 1 .41-1.91 1.4 1.4 0 0 1 1.09-.76v-.18a1.32 1.32 0 0 1 .27-.81 1.21 1.21 0 0 1 .72-.24l2.49-.1a1 1 0 0 1 .71.34 1.49 1.49 0 0 1 .25.91v.05a1.39 1.39 0 0 1 1.17.7 6.06 6.06 0 0 1 .52 1.48 3.48 3.48 0 0 0 .1.35v.05a1 1 0 0 1 -.1.55 7.21 7.21 0 0 0 .1.83q0 .27.09.6c.07.74.18 3.27.28 5.5.05 1.12.09 2.14.13 2.81v.71c.12 1.63-.51 2-.59 2v.12h-.35zm.11-.41h.19v.09l1.13-.09 4.57-.3v-.1h.2c.17-.11.49-.59.4-1.74v-.71c0-.66-.08-1.69-.13-2.8-.1-2.23-.21-4.76-.27-5.49 0-.21-.07-.41-.09-.59a6 6 0 0 1 -.11-.92v-.06a.71.71 0 0 0 .06-.37c0-.08-.06-.2-.1-.34a6.24 6.24 0 0 0 -.48-1.4 1.14 1.14 0 0 0 -1.05-.58h-.15v-.35a1.2 1.2 0 0 0 -.18-.72.74.74 0 0 0 -.45-.23l-2.5.1a1 1 0 0 0 -.5.16 1 1 0 0 0 -.25.59v.42h-.18c-.38.09-.77.19-.94.6a7.27 7.27 0 0 0 -.38 1.84.43.43 0 0 0 0 .54v1.7c0 .51.1 2.07.22 3.73s.23 3.25.28 4.36l.09.89a2.6 2.6 0 0 0 .62 1.77zm.43-1.08c-.22 0-.24-.54-.24-.77v-.8c-.2-2-.5-7.07-.5-8.2a13.8 13.8 0 0 1 .1-1.92c0-.17 0-.19-.12-.25h-.1v-.11a5.69 5.69 0 0 1 .28-1.07c0-.24.66-.25.67-.25h.3l3-.2a1.26 1.26 0 0 1 .64 0h.18v.08a5.43 5.43 0 0 1 .22.53l.18.48v.1l-.07.07s0 .23 0 .29a1 1 0 0 0 0 .21c.06.31.18.87.26 1.57s.18 3.25.27 5.52c.05 1.06.09 2 .13 2.69v.71c0 .57 0 .86-.15 1zm-.53-12.14a.48.48 0 0 1 .19.47 13.81 13.81 0 0 0 -.1 1.9c0 1.12.3 6.17.49 8.19v.81a2.19 2.19 0 0 0 0 .44l4.84-.28a3.74 3.74 0 0 0 0-.76v-.7c0-.64-.08-1.62-.13-2.69-.09-2.26-.21-4.82-.27-5.49a14.43 14.43 0 0 0 -.25-1.54 1.43 1.43 0 0 1 -.05-.28.86.86 0 0 1 .08-.42c-.07-.16-.12-.29-.16-.41l-.17-.43a1.15 1.15 0 0 0 -.52 0h-.24l-3.1.2a1.67 1.67 0 0 0 -.39.06 6.5 6.5 0 0 0 -.22.93zm1.09-2.07v-.4l2.4-.12v.4z"/><path d="m34.22 21.55c-3.4-.9-6.7-1.8-10.1-2.8a.88.88 0 0 0 -1.2.5c-1.2 2.2-2.5 4.4-3.7 6.6a1.21 1.21 0 0 1 -.5.5c-1.7.4-3.4.7-5.1 1.1a.42.42 0 0 1 -.6-.3 12.81 12.81 0 0 0 -1.1-2 1.78 1.78 0 0 0 -.8-.7c-3.3-1-6.7-1.9-10-2.8a1.25 1.25 0 0 0 -.9.1 1 1 0 0 0 .1.9c1.2 2.3 2.4 4.5 3.6 6.8a2 2 0 0 1 .3 1.1v12.7a.78.78 0 0 0 .6.9c3.4.9 6.9 1.9 10.3 2.9a.85.85 0 0 0 .7 0c4.8-.9 9.5-1.9 14.3-2.9.6-.1.8-.4.8-1v-12.6a3.55 3.55 0 0 1 .2-1c1.2-2.2 2.4-4.5 3.6-6.7.4-.8.28-1.1-.5-1.3zm-32.5 1.5c1.7.5 3.3.9 4.8 1.3 1.3.4 2.6.7 3.8 1.1a3.33 3.33 0 0 1 .6.3c1.1 2 2.1 4 3.3 6.1-1.3-.4-2.5-.7-3.7-1-1.6-.5-3.3-.9-4.9-1.4-.2-.1-.5-.2-.6-.4-1.1-2-2.1-3.9-3.3-6zm13.1 22.3v.3c-1-.3-1.9-.5-2.9-.8-2.1-.6-4.1-1.1-6.2-1.7-.3-.1-.4-.2-.4-.5v-12c1.4.4 2.7.7 3.9 1.1 1.7.5 3.4.9 5.1 1.4.3.1.5.1.5.5zm.1-14.7c-.4-.7-.7-1.3-1.1-2v-.2c1.7-.3 3.4-.7 5.1-1.1a4.08 4.08 0 0 1 1.9.1c2.1.7 4.2 1.3 6.3 1.9a3.93 3.93 0 0 1 .6.2c-3.6.7-7 1.4-10.5 2.1-.5.1-1.1.4-1.5.2-.3 0-.5-.7-.8-1.2zm14.7 12.35c-4.5.9-9 1.9-13.6 2.8v-12.55l4.4-.9v4.65l4-.7v-4.7c1.7-.3 3.5-.7 5.2-1zm.5-14.1a.76.76 0 0 1 -.4.2c-3.1-.9-6.1-1.9-9.1-2.8l-.1-.1c1.2-2 2.3-4.1 3.5-6.2l9.5 2.7c-1.1 2.05-2.3 4.05-3.4 6.15z"/><path d="m15.47 47.27a1 1 0 0 1 -.42-.09c-4-1.17-7.27-2.09-10.27-2.89a.92.92 0 0 1 -.71-1v-12.74a1.87 1.87 0 0 0 -.28-1c-.6-1.15-1.2-2.27-1.8-3.39l-1.81-3.44a1.16 1.16 0 0 1 -.1-1 1.37 1.37 0 0 1 1-.13l1.8.41c2.73.74 5.55 1.51 8.28 2.34a1.87 1.87 0 0 1 .88.76 13.14 13.14 0 0 1 1.11 2c.08.23.2.29.42.22.87-.21 1.73-.39 2.57-.56s1.7-.35 2.54-.55a1 1 0 0 0 .4-.42c.6-1.1 1.24-2.22 1.86-3.3s1.24-2.2 1.84-3.3a1 1 0 0 1 1.38-.57c3 .87 6.08 1.73 10.09 2.79.45.12.69.26.79.49s.06.53-.19 1c-.6 1.1-1.2 2.23-1.8 3.35s-1.2 2.25-1.8 3.35a3.35 3.35 0 0 0 -.18.93v12.6a1 1 0 0 1 -.93 1.15l-2.1.44c-4.16.87-8.09 1.69-12.18 2.45a.83.83 0 0 1 -.39.1zm-15.13-25.42a.88.88 0 0 0 .1.72c.61 1.17 1.21 2.3 1.82 3.42s1.19 2.25 1.79 3.39a2.15 2.15 0 0 1 .32 1.17v12.7c0 .44.06.58.5.76 3 .79 6.26 1.71 10.29 2.9a.72.72 0 0 0 .59 0c4.09-.77 8-1.59 12.19-2.46l2.1-.44c.52-.08.69-.3.69-.85v-12.61a4 4 0 0 1 .27-1.05c.61-1.12 1.21-2.25 1.81-3.37s1.2-2.25 1.8-3.35c.2-.39.25-.63.19-.77s-.25-.23-.59-.31c-4-1.06-7.13-1.92-10.11-2.8-.48-.16-.73-.05-1 .44-.59 1.09-1.23 2.21-1.84 3.29s-1.25 2.2-1.85 3.3a1.34 1.34 0 0 1 -.57.56c-.88.22-1.74.39-2.58.57s-1.7.35-2.55.55a.57.57 0 0 1 -.78-.4 12.61 12.61 0 0 0 -1.08-2 1.69 1.69 0 0 0 -.72-.64c-2.78-.8-5.6-1.57-8.33-2.31l-1.72-.47a1.22 1.22 0 0 0 -.74.06zm15.53 24.08v-12.8h.12l2.2-.45 2.2-.45h.18v4.6l3.7-.65v-4.7h.12c.85-.15 1.74-.33 2.6-.5s1.75-.35 2.6-.5h.18v12.7h-.13c-2 .4-4.11.84-6.11 1.26-2.44.51-5 1-7.49 1.54zm.3-12.56v12.2c2.45-.49 4.91-1 7.3-1.5 2-.42 4-.84 6-1.24v-12.1c-.8.14-1.62.31-2.42.47l-2.48.48v4.7l-4.3.75v-4.6l-2 .42zm-1.17 12.48-.2-.06c-.49-.15-1-.27-1.44-.39l-1.49-.4c-1-.3-2.09-.57-3.09-.84l-3.11-.86c-.33-.11-.5-.24-.5-.64v-12.21l.19.06 1.49.4c.85.23 1.65.44 2.41.7s1.71.47 2.54.7 1.71.45 2.56.7h.11c.25.08.5.15.5.61zm-9.5-15v11.8c0 .22 0 .27.29.36 1 .3 2.09.57 3.09.84l3.11.86c.5.15 1 .27 1.44.39l1.27.35v-11.8c0-.24-.06-.25-.28-.32h-.12c-.84-.25-1.71-.47-2.54-.7s-1.7-.45-2.56-.7-1.55-.46-2.39-.69zm9.06 1.25-.39-.1c-1.3-.4-2.52-.7-3.69-1-.81-.26-1.64-.48-2.46-.71s-1.65-.45-2.45-.7l-.14-.06a1.07 1.07 0 0 1 -.55-.41l-1.07-2c-.7-1.3-1.42-2.63-2.22-4l-.19-.32.36.11c1.26.37 2.45.68 3.61 1l1.18.32 1.71.48c.73.2 1.43.39 2.1.62l.24.1a2 2 0 0 1 .42.23c.44.81.87 1.61 1.3 2.43.63 1.19 1.28 2.42 2 3.67zm-12.56-8.8c.73 1.29 1.4 2.52 2.05 3.71.35.66.7 1.31 1.07 2 .06.12.25.2.4.27l.13.07c.78.24 1.61.46 2.42.68s1.66.46 2.46.71c1.06.26 2.16.54 3.34.89-.64-1.14-1.24-2.26-1.81-3.35-.43-.81-.85-1.61-1.29-2.41a2 2 0 0 0 -.32-.15l-.23-.11c-.65-.21-1.34-.4-2.07-.6-.56-.15-1.14-.31-1.71-.49l-1.18-.31c-1.02-.3-2.1-.59-3.26-.91zm14 8.77a.84.84 0 0 1 -.35-.07c-.28 0-.45-.38-.64-.79-.08-.16-.16-.33-.25-.48-.21-.35-.38-.68-.56-1l-.54-1v-.37h.12c1.7-.3 3.42-.7 5.09-1.1a4.2 4.2 0 0 1 2 .11c2.1.7 4.22 1.3 6.28 1.89a2.14 2.14 0 0 1 .33.1l.29.11.55.18-.57.11c-2.38.46-4.71.93-7 1.39l-3.54.71c-.13 0-.27.07-.42.11a2.78 2.78 0 0 1 -.79.1zm-1-1.5c.09.16.18.34.26.51s.29.62.41.62h.06a1.53 1.53 0 0 0 1-.1l.45-.12 3.53-.71 6.43-1.28h-.08c-2.06-.59-4.2-1.2-6.3-1.9a4 4 0 0 0 -1.83-.09c-1.62.38-3.31.78-5 1.08.19.34.36.65.52 1s.39.64.6.99zm14.72-1.37c-1.76-.51-3.51-1.06-5.2-1.59-1.28-.4-2.6-.82-3.9-1.21h-.06l-.18-.19.06-.1c.73-1.21 1.4-2.44 2.12-3.73q.68-1.23 1.38-2.46l.05-.11h.12l4.76 1.35 4.74 1.35h.17l-.08.16c-.55 1.05-1.14 2.1-1.71 3.11s-1.14 2-1.69 3.09a.9.9 0 0 1 -.58.33zm-9-3.08 3.85 1.19c1.68.53 3.42 1.08 5.17 1.59a.61.61 0 0 0 .26-.14c.55-1 1.13-2.08 1.69-3.08s1.09-1.94 1.62-2.94l-4.56-1.29-4.65-1.32c-.45.78-.89 1.57-1.32 2.35-.67 1.21-1.36 2.45-2.07 3.64z"/></svg>